<!-- Generated by IcoMoon.io -->
<svg version="1.1" xmlns="http://www.w3.org/2000/svg" width="1463" height="1024" viewBox="0 0 1463 1024">
<title></title>
<g id="icomoon-ignore">
</g>
<path fill="#faf4ea" d="M1462.857 951.223c0 40.229-32.622 72.777-72.777 72.777h-585.874c-40.194 0-72.777-32.583-72.777-72.777s32.583-72.777 72.777-72.777h585.874c40.229 0 72.777 32.549 72.777 72.777zM1462.857 512c0 40.229-32.622 72.777-72.777 72.777h-1317.303c-40.194 0-72.777-32.583-72.777-72.777s32.583-72.777 72.777-72.777h1317.303c40.229 0 72.777 32.622 72.777 72.777zM1390.080 145.554c40.194 0 72.777-32.583 72.777-72.777s-32.583-72.777-72.777-72.777v0h-878.446c-40.194 0-72.777 32.583-72.777 72.777s32.583 72.777 72.777 72.777v0h878.446z"></path>
</svg>
